<svg width="361" height="285" viewBox="0 0 361 285" fill="none" xmlns="http://www.w3.org/2000/svg">
<path fill-rule="evenodd" clip-rule="evenodd" d="M104.33 13.3037C103.301 12.7913 102.164 12.5343 101.015 12.5544C99.8662 12.5745 98.7389 12.8711 97.7288 13.4192C96.8439 13.8498 96.0527 14.4506 95.4002 15.1873C94.7478 15.9241 94.2471 16.7823 93.9268 17.7128C93.6064 18.6433 93.4727 19.6278 93.5332 20.61C93.5938 21.5923 93.8475 22.5529 94.2797 23.437C97.5143 30.1788 104.478 33.3393 115.733 33.5951C122.483 25.2937 124.496 17.2481 121.262 10.4898C120.404 8.70158 118.872 7.32695 117.001 6.66783C115.131 6.00871 113.075 6.11901 111.286 6.97448C110.242 7.41195 109.32 8.09758 108.602 8.9719C107.883 9.84621 107.388 10.8828 107.16 11.9916C107.046 12.7819 106.836 13.5551 106.533 14.2939C105.77 14.0315 105.033 13.7001 104.33 13.3037Z" fill="#DE5159"/>
<g style="mix-blend-mode:multiply" opacity="0.2">
<path fill-rule="evenodd" clip-rule="evenodd" d="M95.2861 25.2938C98.859 30.7649 105.534 33.3477 115.7 33.5953C118.015 30.8347 119.896 27.7378 121.278 24.4109C108.769 33.8593 99.5521 28.9247 95.2861 25.2938Z" fill="#851B34"/>
</g>
<path fill-rule="evenodd" clip-rule="evenodd" d="M346.551 177.896C346.301 176.779 345.788 175.738 345.055 174.859C344.321 173.981 343.388 173.291 342.334 172.846C340.545 171.99 338.489 171.88 336.619 172.539C334.748 173.198 333.216 174.573 332.358 176.361C329.124 183.111 331.046 190.513 337.903 199.466C348.63 199.532 356.122 196.05 359.357 189.3C360.212 187.509 360.321 185.451 359.661 183.579C359 181.707 357.624 180.173 355.833 179.315C354.838 178.77 353.724 178.476 352.589 178.46C351.455 178.444 350.333 178.707 349.323 179.225C348.631 179.627 347.894 179.949 347.128 180.182C346.87 179.438 346.677 178.673 346.551 177.896Z" fill="#DE5159"/>
<g style="mix-blend-mode:multiply" opacity="0.2">
<path fill-rule="evenodd" clip-rule="evenodd" d="M332.87 183.078C331.302 187.914 332.993 193.22 337.82 199.5C340.611 199.555 343.393 199.185 346.072 198.402C334.264 195.431 332.746 187.419 332.87 183.078Z" fill="#851B34"/>
</g>
<path fill-rule="evenodd" clip-rule="evenodd" d="M15.5445 248.285C12.1119 247.195 8.73708 247.715 5.36225 250.009C4.08608 250.876 2.99306 251.985 2.14562 253.273C1.29817 254.562 0.712912 256.005 0.423267 257.52C0.133622 259.035 0.145267 260.592 0.457538 262.103C0.769809 263.613 1.37659 265.047 2.24321 266.323C8.84435 276.036 20.3963 279.279 37.9306 277.051C46.4708 262.602 47.7086 249.638 41.1074 239.917C39.3567 237.342 36.6552 235.566 33.5964 234.981C30.5376 234.396 27.3717 235.05 24.7944 236.798C21.3948 239.109 19.7527 241.922 19.5134 245.553C19.4309 246.808 19.3072 249.143 19.0761 249.283C18.8451 249.423 16.7162 248.664 15.5445 248.285Z" fill="#DE5159"/>
<g style="mix-blend-mode:multiply" opacity="0.2">
<path fill-rule="evenodd" clip-rule="evenodd" d="M4.33936 268.964C11.1715 276.614 22.1294 279.064 37.9722 277.059C40.9233 272.238 43.1163 266.992 44.4743 261.504C27.2453 279.097 11.7656 273.593 4.33936 268.964Z" fill="#851B34"/>
</g>
<path fill-rule="evenodd" clip-rule="evenodd" d="M37.147 36.1204C37.147 36.1204 147.774 21.6383 172.602 147.983C172.602 147.983 64.0631 153.429 37.147 36.1204Z" fill="#09DAE3"/>
<path d="M50.085 48.1516C50.085 48.1516 115.56 85.6317 172.602 148" stroke="#89ABC9" stroke-width="1.5" stroke-miterlimit="10" stroke-linecap="round"/>
<path d="M74.6411 44.207L75.8788 64.7047" stroke="#89ABC9" stroke-width="1.5" stroke-miterlimit="10" stroke-linecap="round"/>
<path d="M58.9058 78.7496L82.2655 69.1609" stroke="#89ABC9" stroke-width="1.5" stroke-miterlimit="10" stroke-linecap="round"/>
<path d="M101.227 53.8372L97.3823 80.202" stroke="#89ABC9" stroke-width="1.5" stroke-miterlimit="10" stroke-linecap="round"/>
<path d="M73.8491 98.9421L102.861 84.7158" stroke="#89ABC9" stroke-width="1.5" stroke-miterlimit="10" stroke-linecap="round"/>
<path d="M124.471 68.3191L118.72 97.0439" stroke="#89ABC9" stroke-width="1.5" stroke-miterlimit="10" stroke-linecap="round"/>
<path d="M91.5732 117.393L122.854 101.236" stroke="#89ABC9" stroke-width="1.5" stroke-miterlimit="10" stroke-linecap="round"/>
<path d="M142.946 87.7605L139.704 115.239" stroke="#89ABC9" stroke-width="1.5" stroke-miterlimit="10" stroke-linecap="round"/>
<path d="M116.996 132.412L146.412 121.453" stroke="#89ABC9" stroke-width="1.5" stroke-miterlimit="10" stroke-linecap="round"/>
<path fill-rule="evenodd" clip-rule="evenodd" d="M329.239 224.164C329.239 224.164 271.042 319.358 157.131 259.334C157.131 259.334 221.055 171.443 329.239 224.164Z" fill="#09DAE3"/>
<path d="M311.754 226.681C311.754 226.681 241.469 254.102 157.131 259.334" stroke="#89ABC9" stroke-width="1.5" stroke-miterlimit="10" stroke-linecap="round"/>
<path d="M299.394 248.268L282.668 236.353" stroke="#89ABC9" stroke-width="1.5" stroke-miterlimit="10" stroke-linecap="round"/>
<path d="M282.404 214.32L275.2 238.531" stroke="#89ABC9" stroke-width="1.5" stroke-miterlimit="10" stroke-linecap="round"/>
<path d="M275.217 262.915L257.113 243.366" stroke="#89ABC9" stroke-width="1.5" stroke-miterlimit="10" stroke-linecap="round"/>
<path d="M257.311 213.272L250.157 244.786" stroke="#89ABC9" stroke-width="1.5" stroke-miterlimit="10" stroke-linecap="round"/>
<path d="M249.341 271.902L230.602 249.391" stroke="#89ABC9" stroke-width="1.5" stroke-miterlimit="10" stroke-linecap="round"/>
<path d="M231.815 215.483L224.743 249.976" stroke="#89ABC9" stroke-width="1.5" stroke-miterlimit="10" stroke-linecap="round"/>
<path d="M222.606 274.072L203.265 254.292" stroke="#89ABC9" stroke-width="1.5" stroke-miterlimit="10" stroke-linecap="round"/>
<path d="M204.164 225.84L194.221 255.604" stroke="#89ABC9" stroke-width="1.5" stroke-miterlimit="10" stroke-linecap="round"/>
<path d="M141.115 220.583C141.115 220.583 76.8774 245.339 70.103 229.916C63.3286 214.493 82.9917 209.988 82.9917 209.988C82.9917 209.988 32.9551 222.481 23.6805 203.757C14.4059 185.034 45.5963 191.487 45.5963 191.487C45.5963 191.487 -12.7496 169.207 4.65269 152.703C22.0549 136.199 55.8858 170.634 55.8858 170.634C55.8858 170.634 31.115 149.295 43.946 142.099C56.7769 134.904 81.6467 161.995 95.3606 185.059C95.3606 185.059 80.9701 158.694 99.2305 155.121C117.491 151.548 141.115 220.583 141.115 220.583Z" fill="#DDF018"/>
<path d="M38.7227 171.245C38.7227 171.245 134.027 223.174 165.737 226.203" stroke="#DE5159" stroke-width="1.35" stroke-miterlimit="10" stroke-linecap="round"/>
<path d="M45.3159 197.998C45.3159 197.998 64.0219 201.422 79.1468 192.106C77.698 181.494 72.7635 171.666 65.1193 164.165" stroke="#DE5159" stroke-width="1.35" stroke-miterlimit="10" stroke-linecap="round"/>
<path d="M92.1011 219.197C92.1011 219.197 107.011 217.67 117.581 211.135C117.581 211.135 118.539 199.83 113.051 184.382" stroke="#DE5159" stroke-width="1.35" stroke-miterlimit="10" stroke-linecap="round"/>
<path d="M38.731 180.066C38.731 180.066 50.5552 184.242 57.8 181.321" stroke="#DE5159" stroke-width="1.35" stroke-miterlimit="10" stroke-linecap="round"/>
<path fill-rule="evenodd" clip-rule="evenodd" d="M321.598 59.5557C316.573 64.0199 319.164 74.1038 316.895 82.3474C314.593 90.8716 310.467 100.023 303.561 102.267C305.774 95.6335 307.197 88.7618 307.802 81.7945C308.487 71.3724 310.739 64.5481 321.598 59.5557Z" fill="#DDF018"/>
<path fill-rule="evenodd" clip-rule="evenodd" d="M336.913 82.1079C330.402 83.7583 328.084 93.9164 322.283 100.204C316.309 106.69 308.495 109.851 301.341 108.679C307.026 105.397 311.823 100.774 315.31 95.212C320.682 86.2999 324.973 81.5633 336.913 82.1079Z" fill="#DDF018"/>
<path fill-rule="evenodd" clip-rule="evenodd" d="M291.241 67.9397C295.053 73.4437 290.168 82.5951 290.416 91.1193C290.68 99.8993 293.848 106.253 299.996 110.041C298.207 104.159 297.842 97.9369 298.931 91.8867C300.714 81.6956 300.565 75.3334 291.241 67.9397Z" fill="#DDF018"/>
<path fill-rule="evenodd" clip-rule="evenodd" d="M329.511 109.801C322.819 110.354 318.85 119.984 312.092 125.224C305.12 130.629 297.52 132.048 290.639 129.713C296.588 127.565 301.887 123.925 306.028 119.143C312.818 111.237 317.827 107.285 329.511 109.801Z" fill="#DDF018"/>
<path fill-rule="evenodd" clip-rule="evenodd" d="M277.898 85.0952C281.95 91.6307 278.212 100.873 279.219 110.173C280.25 119.753 282.189 124.465 288.254 129.474C287.521 123.373 287.389 117.215 287.858 111.089C288.601 100.237 287.264 94.4776 277.898 85.0952Z" fill="#DDF018"/>
<path d="M316.474 66.3799C315.195 68.121 314.824 70.184 314.172 73.3197C313.223 78.1718 311.787 85.483 305.921 98.1167C284.087 145.276 260.934 160.278 242.104 172.483C228.473 181.312 217.143 188.656 210.353 205.853" stroke="#468E85" stroke-width="1.5" stroke-miterlimit="10" stroke-linecap="round"/>
<path fill-rule="evenodd" clip-rule="evenodd" d="M315.946 141.208C309.345 140.102 303.099 148.453 295.26 151.861C287.173 155.385 279.458 154.89 273.385 150.929C279.674 150.319 285.702 148.109 290.895 144.509C299.41 138.526 305.236 135.927 315.946 141.208Z" fill="#DDF018"/>
<path fill-rule="evenodd" clip-rule="evenodd" d="M272.007 104.578C274.326 111.906 268.426 119.943 267.106 129.21C265.752 138.749 266.47 143.791 271.116 150.137C271.897 144.047 273.279 138.049 275.241 132.23C278.658 121.891 278.773 115.982 272.007 104.578Z" fill="#DDF018"/>
<path fill-rule="evenodd" clip-rule="evenodd" d="M299.74 162.424C293.395 160.237 285.878 167.441 277.577 169.504C269.02 171.633 261.495 169.875 256.123 164.965C262.433 165.396 268.748 164.203 274.466 161.5C283.922 157.002 290.102 155.41 299.74 162.424Z" fill="#DDF018"/>
<path fill-rule="evenodd" clip-rule="evenodd" d="M262.518 118.994C263.591 126.602 256.445 133.55 253.606 142.471C250.685 151.655 250.562 156.738 254.093 163.777C255.879 157.897 258.242 152.209 261.148 146.795C266.206 137.165 267.304 131.355 262.518 118.994Z" fill="#DDF018"/>
<path fill-rule="evenodd" clip-rule="evenodd" d="M278.13 181.585C272.024 178.763 263.83 185.182 255.364 186.404C246.642 187.666 239.323 185.158 234.504 179.736C240.739 180.802 247.143 180.251 253.103 178.135C262.898 174.604 269.21 173.63 278.13 181.585Z" fill="#DDF018"/>
<path fill-rule="evenodd" clip-rule="evenodd" d="M245.413 134.607C245.71 142.289 237.904 148.486 234.191 157.077C230.362 165.923 229.727 170.973 232.541 178.325C234.907 172.654 237.828 167.231 241.262 162.135C247.261 153.083 248.936 147.414 245.413 134.607Z" fill="#DDF018"/>
<path d="M294.129 73.592C294.129 73.592 296.242 78.6175 294.484 89.7658C292.727 100.914 300.004 110.041 300.004 110.041" stroke="#468E85" stroke-width="1.5" stroke-miterlimit="10" stroke-linecap="round"/>
<path d="M332.012 83.4448C332.012 83.4448 325.254 85.0952 319.395 95.9134C313.537 106.732 300.565 108.894 300.565 108.894" stroke="#468E85" stroke-width="1.5" stroke-miterlimit="10" stroke-linecap="round"/>
<path d="M288.254 129.474C288.254 129.474 282.289 123.549 283.609 111.765C285.21 97.5475 281.224 91.012 281.224 91.012" stroke="#468E85" stroke-width="1.5" stroke-miterlimit="10" stroke-linecap="round"/>
<path d="M323.917 110.503C323.917 110.503 316.21 112.343 309.353 121.23C302.496 130.118 287.627 130.481 287.627 130.481" stroke="#468E85" stroke-width="1.5" stroke-miterlimit="10" stroke-linecap="round"/>
<path d="M273.6 113.597C273.6 113.597 275.539 119.877 270.588 130.662C269.133 133.72 268.422 137.078 268.514 140.463C268.606 143.848 269.498 147.163 271.116 150.137" stroke="#468E85" stroke-width="1.5" stroke-miterlimit="10" stroke-linecap="round"/>
<path d="M309.105 140.771C309.105 140.771 300.705 140.631 292.388 148.387C284.07 156.144 271.116 150.137 271.116 150.137" stroke="#468E85" stroke-width="1.5" stroke-miterlimit="10" stroke-linecap="round"/>
<path d="M262.7 127.939C262.7 127.939 263.583 136.496 256.75 145.342C249.918 154.188 254.465 164.553 254.465 164.553" stroke="#468E85" stroke-width="1.5" stroke-miterlimit="10" stroke-linecap="round"/>
<path d="M292.421 161.013C292.421 161.013 283.922 160.328 277.288 164.66C266.33 171.823 254.464 164.586 254.464 164.586" stroke="#468E85" stroke-width="1.5" stroke-miterlimit="10" stroke-linecap="round"/>
<path d="M244.34 145.4C244.34 145.4 243.515 152.777 236.213 161.45C234.1 163.92 232.651 166.887 232.001 170.072C231.352 173.256 231.523 176.554 232.5 179.654" stroke="#468E85" stroke-width="1.5" stroke-miterlimit="10" stroke-linecap="round"/>
<path d="M269.655 178.795C264.022 179.079 258.462 180.191 253.152 182.096C244.546 185.29 232.524 179.621 232.524 179.621" stroke="#468E85" stroke-width="1.5" stroke-miterlimit="10" stroke-linecap="round"/>
<path fill-rule="evenodd" clip-rule="evenodd" d="M291.86 124.069C294.476 122.889 296.258 122.072 297.463 121.511C306.052 117.517 289.31 127.857 289.211 127.906C287.016 129.606 291.86 124.069 291.86 124.069Z" fill="#468E85"/>
<path fill-rule="evenodd" clip-rule="evenodd" d="M301.299 107.062C301.539 103.959 301.712 101.838 301.844 100.402C302.768 90.1536 298.403 111.419 298.378 111.509C297.471 114.497 301.299 107.062 301.299 107.062Z" fill="#468E85"/>
<path fill-rule="evenodd" clip-rule="evenodd" d="M274.614 146.729C277.337 145.821 279.186 145.177 280.448 144.74C289.376 141.596 271.685 150.285 271.685 150.285C269.268 151.779 274.614 146.729 274.614 146.729Z" fill="#468E85"/>
<path fill-rule="evenodd" clip-rule="evenodd" d="M281.983 137.198C282.041 134.392 282.09 132.478 282.14 131.174C282.462 121.907 279.433 140.994 279.409 141.076C278.699 143.733 281.983 137.198 281.983 137.198Z" fill="#468E85"/>
<path fill-rule="evenodd" clip-rule="evenodd" d="M256.833 162.787C259.647 162.259 261.569 161.879 262.881 161.607C272.156 159.726 253.466 165.881 253.392 165.923C250.859 167.053 256.833 162.787 256.833 162.787Z" fill="#468E85"/>
<path fill-rule="evenodd" clip-rule="evenodd" d="M265.15 154.452C265.975 151.77 266.569 149.947 266.974 148.676C269.845 139.871 261.652 157.365 261.61 157.44C260.191 159.824 265.15 154.452 265.15 154.452Z" fill="#468E85"/>
<path fill-rule="evenodd" clip-rule="evenodd" d="M238.68 174.653C241.543 174.488 243.498 174.364 244.827 174.265C254.275 173.597 234.925 177.285 234.867 177.31C232.202 178.102 238.68 174.653 238.68 174.653Z" fill="#468E85"/>
<path fill-rule="evenodd" clip-rule="evenodd" d="M246.263 169.768C247.088 167.499 247.707 165.947 248.119 164.899C251.065 157.473 242.731 172.054 242.682 172.112C241.246 174.059 246.263 169.768 246.263 169.768Z" fill="#468E85"/>
<path d="M258.31 244.918C258.31 244.918 206.252 278.693 147.023 274.485" stroke="#192B3C" stroke-width="5.65" stroke-miterlimit="10" stroke-linecap="round"/>
<path d="M277.937 252.314C283.624 247.08 283.992 238.226 278.759 232.538C273.525 226.851 264.672 226.483 258.985 231.716C253.298 236.95 252.93 245.804 258.163 251.492C263.397 257.179 272.25 257.547 277.937 252.314Z" fill="white"/>
<path d="M276.636 241.221C276.8 242.846 276.478 244.482 275.711 245.924C274.944 247.365 273.766 248.547 272.328 249.319C270.889 250.091 269.254 250.419 267.629 250.261C266.004 250.103 264.462 249.467 263.199 248.432C261.935 247.398 261.007 246.012 260.532 244.45C260.057 242.888 260.056 241.22 260.529 239.657C261.002 238.094 261.928 236.707 263.19 235.671C264.452 234.634 265.992 233.996 267.617 233.836C269.792 233.621 271.963 234.279 273.654 235.663C275.345 237.048 276.417 239.047 276.636 241.221Z" fill="#EAEAEA"/>
<path d="M124.406 120.364C124.406 120.364 91.7052 108.77 109.479 70.9928C127.252 33.2157 147.526 39.9079 144.96 5.52229C147.818 3.39373 151.176 2.03593 154.71 1.57929C158.245 1.12265 161.837 1.5825 165.143 2.91469C163.658 14.5086 165.027 18.5933 167.156 19.1544C170.787 20.1446 177.495 15.1688 179.731 20.5242C181.968 25.8797 184.806 39.2808 182.009 61.957C179.212 84.6332 124.406 120.364 124.406 120.364Z" fill="#DE5159"/>
<g style="mix-blend-mode:multiply" opacity="0.3">
<path d="M132.855 86.1596C119.108 84.2699 112.936 77.033 110.634 68.5913C110.246 69.367 109.858 70.1427 109.479 70.9596C91.7052 108.737 124.406 120.331 124.406 120.331C124.406 120.331 132.368 115.14 142.361 107.466C148.508 98.0258 147.774 88.2391 132.855 86.1596Z" fill="#851B34"/>
</g>
<path d="M138.771 90.228C138.771 90.228 131.543 67.1227 146.825 49.0593C162.106 30.9959 186.431 36.5907 190.376 26.1603C194.32 15.7299 193.297 11.1583 193.297 11.1583C195.608 9.50277 198.34 8.53377 201.178 8.36296C204.016 8.19215 206.844 8.82647 209.337 10.1929C207.324 21.5557 208.776 31.0124 213.273 32.0026C224 34.3792 224.726 16.7614 224.726 16.7614C226.351 16.1308 228.09 15.8504 229.831 15.9386C231.571 16.0267 233.273 16.4815 234.826 17.273C236.825 18.392 238.452 20.0734 239.505 22.1086C238.556 24.1798 233.035 36.3761 236.27 38.7527C236.578 38.9522 236.924 39.086 237.286 39.1456C237.648 39.2052 238.018 39.1895 238.374 39.0993C245.99 37.8615 247.269 28.5451 247.269 28.5451C249.576 28.5868 251.835 29.2146 253.833 30.3694C255.83 31.5242 257.501 33.1681 258.689 35.1466C255.939 46.2647 253.169 57.38 250.38 68.4925L138.771 90.228Z" fill="#DE5159"/>
<g style="mix-blend-mode:multiply" opacity="0.3">
<path d="M163.591 74.1944C145.579 58.6891 155.2 45.1065 164.755 37.1599C158.509 39.3879 152.122 42.8042 146.825 49.0591C131.543 67.1143 138.771 90.2279 138.771 90.2279L169.029 84.336C168.624 80.3708 166.67 76.7259 163.591 74.1944Z" fill="#851B34"/>
</g>
<path d="M266.454 60.4387C266.454 60.4387 204.568 35.7738 145.158 71.686C85.7475 107.598 69.6655 175.495 100.13 218.066C130.594 260.638 148.442 306.246 194.576 274.254C240.709 242.261 265.736 189.812 246.163 136.257C226.591 82.7023 255.133 85.7307 255.133 85.7307L266.454 60.4387Z" fill="#DE5159"/>
<g style="mix-blend-mode:multiply" opacity="0.3">
<path d="M255.133 85.7308L261.255 72.0574C258.433 72.2307 228.77 74.3844 222.408 88.2476C219.627 94.3045 229.339 95.6743 241.262 94.354C242.385 91.6483 244.326 89.3619 246.813 87.8154C249.301 86.2689 252.21 85.5399 255.133 85.7308Z" fill="#851B34"/>
</g>
<g style="mix-blend-mode:multiply" opacity="0.3">
<path d="M251.436 156.136C253.722 178.02 237.838 234.636 207.836 251.165C177.834 267.693 108.233 249.168 103.356 156.821C100.295 99.0081 147.996 69.6973 184.105 55.8589C170.363 59.0456 157.213 64.3874 145.141 71.686C85.6569 107.59 69.6491 175.495 100.113 218.066C130.578 260.638 148.442 306.246 194.576 274.254C234.983 246.271 259.193 202.545 251.436 156.136Z" fill="#851B34"/>
</g>
<path d="M280.242 93.8091C280.242 93.8091 261.338 81.0269 233.902 84.4019C206.466 87.777 207.968 119.217 214.924 127.815C221.88 136.414 240.866 139.038 252.624 132.766C264.383 126.495 266.347 131.553 266.347 131.553L272.337 118.424C272.337 118.424 263.351 120.52 264.605 113.383C265.86 106.245 270.835 114.521 270.835 114.521L280.242 93.8091Z" fill="#DE5159"/>
<g style="mix-blend-mode:multiply" opacity="0.3">
<path d="M268.508 123.5C256.362 119.489 247.88 129.276 225.395 125.092C217.143 123.549 212.836 118.714 210.641 113.218C210.831 119.382 212.547 124.911 214.891 127.815C221.814 136.414 240.833 139.038 252.591 132.767C264.35 126.495 266.313 131.553 266.313 131.553L269.746 124.036C269.344 123.834 268.931 123.655 268.508 123.5Z" fill="#851B34"/>
</g>
<path d="M211.912 102.631C211.912 102.631 214.297 77.8749 255.133 85.7307" stroke="#851B34" stroke-width="1.69" stroke-miterlimit="10" stroke-linecap="round"/>
<path d="M267.7 74.8794C264.762 81.2994 259.605 85.2355 256.148 83.6759C252.69 82.1163 252.319 75.6303 255.248 69.2103C258.177 62.7904 263.335 58.846 266.8 60.4138C270.266 61.9817 270.629 68.4594 267.7 74.8794Z" fill="#851B34"/>
<path d="M266.8 60.4139C264.779 59.4897 262.155 60.4881 259.745 62.7739C260.116 62.8195 260.477 62.9196 260.818 63.071C264.242 64.6306 264.647 71.1083 261.717 77.5366C260.646 79.9405 259.132 82.1212 257.253 83.9648C260.612 84.4186 265.059 80.664 267.7 74.8877C270.629 68.4595 270.225 61.99 266.8 60.4139Z" fill="#FFC1C0"/>
<path d="M280.44 106.394C277.833 112.104 273.517 115.726 270.802 114.489C268.088 113.251 267.997 107.615 270.604 101.904C273.212 96.1942 277.527 92.5716 280.242 93.8094C282.957 95.0472 283.047 100.683 280.44 106.394Z" fill="#851B34"/>
<path d="M280.242 93.8094C279.729 93.6196 279.181 93.5477 278.636 93.5991C278.092 93.6506 277.566 93.824 277.098 94.1065C278.179 96.4665 277.75 100.708 275.786 105.057C274.045 108.853 271.562 111.716 269.284 112.855C269.575 113.57 270.114 114.155 270.802 114.505C273.517 115.743 277.833 112.12 280.44 106.41C283.048 100.7 282.957 95.0472 280.242 93.8094Z" fill="#FFC1C0"/>
<path d="M272.428 126.355C270.778 129.985 268.038 132.288 266.314 131.496C264.589 130.703 264.532 127.13 266.19 123.508C267.849 119.885 270.58 117.575 272.304 118.367C274.029 119.159 274.087 122.757 272.428 126.355Z" fill="#851B34"/>
<path d="M272.304 118.392C272.129 118.317 271.941 118.276 271.751 118.268C271.794 120.129 271.392 121.973 270.579 123.648C269.086 126.908 266.726 129.078 265.01 128.913C265.092 130.192 265.521 131.157 266.313 131.52C268.038 132.346 270.778 130.01 272.428 126.379C274.078 122.749 274.029 119.176 272.304 118.392Z" fill="#FFC1C0"/>
<path d="M158.905 93.7927C158.905 93.7927 111.047 122.93 119.562 161.764C128.077 200.597 159.35 213.808 155.439 240.916" stroke="#851B34" stroke-width="1.69" stroke-miterlimit="10" stroke-linecap="round"/>
<path d="M148.854 119.687C148.854 119.687 120.23 157.993 126.493 181.387" stroke="#851B34" stroke-width="1.69" stroke-miterlimit="10" stroke-linecap="round"/>
<path d="M111.558 114.843C111.558 114.843 105.642 147.562 119.562 161.764" stroke="#851B34" stroke-width="1.69" stroke-miterlimit="10" stroke-linecap="round"/>
<path d="M220.964 158.925C220.964 158.925 220.601 211.036 192.653 242.187" stroke="#851B34" stroke-width="1.69" stroke-miterlimit="10" stroke-linecap="round"/>
<path d="M235.791 169.727C235.791 169.727 223.934 195.671 212.192 207.38" stroke="#851B34" stroke-width="1.69" stroke-miterlimit="10" stroke-linecap="round"/>
<path d="M201.763 176.073C201.763 176.196 195.286 217.67 202.382 228.843" stroke="#851B34" stroke-width="1.69" stroke-miterlimit="10" stroke-linecap="round"/>
<path d="M192.373 19.9053C192.373 19.9053 192.678 29.5517 180.936 32.6379C169.195 35.7242 155.761 38.8846 148.244 48.8529" stroke="#851B34" stroke-width="1.69" stroke-miterlimit="10" stroke-linecap="round"/>
<path d="M170.102 61.8167C170.102 61.8167 203.38 41.2695 253.441 56.387" stroke="#851B34" stroke-width="1.69" stroke-miterlimit="10" stroke-linecap="round"/>
<path d="M144.96 5.52223C144.96 5.52223 147.914 7.95654 156.099 7.34589C164.285 6.73525 165.176 2.91463 165.176 2.91463C165.176 2.91463 162.767 0.604095 154.268 0.967178C145.769 1.33026 144.96 5.52223 144.96 5.52223Z" fill="#851B34"/>
<path d="M193.297 11.1582C196.128 12.0777 199.092 12.5238 202.068 12.4785C207.514 12.4785 209.346 10.2009 209.346 10.2009C206.915 8.47702 203.931 7.71555 200.971 8.06371C195.855 8.59183 193.297 11.1582 193.297 11.1582Z" fill="#851B34"/>
<path d="M224.727 16.7614C224.727 16.7614 225.931 19.5423 231.443 21.597C236.955 23.6517 239.521 22.1086 239.521 22.1086C238.954 20.7667 238.119 19.5544 237.068 18.5457C236.017 17.537 234.771 16.753 233.407 16.2415C230.545 15.3666 227.464 15.5512 224.727 16.7614Z" fill="#851B34"/>
<path d="M247.286 28.5452C247.286 28.5452 247.607 32.209 252.104 34.239C256.601 36.2689 258.706 35.1549 258.706 35.1549C257.53 33.1648 255.862 31.5111 253.862 30.3533C251.862 29.1956 249.597 28.5728 247.286 28.5452Z" fill="#851B34"/>
<path d="M137.435 272.149C123.927 270.565 114.504 266.043 110.304 260.679C84.3781 227.523 298.247 231.203 261.941 188.574C259.837 186.199 257.403 184.14 254.712 182.459" stroke="#192B3C" stroke-width="5.65" stroke-miterlimit="10" stroke-linecap="round"/>
<path d="M225.906 88.396C225.906 88.396 239.109 101.211 216.475 120.43C193.841 139.649 126.716 170.791 105.254 142.157C83.792 113.523 136.362 63.8796 161.768 47.6894C187.174 31.4991 196.688 50.3877 196.688 50.3877" stroke="white" stroke-width="4.68" stroke-miterlimit="10" stroke-linecap="round"/>
<path d="M222.507 91.0449C222.936 91.7051 224.982 91.1357 227.062 89.7741C229.141 88.4126 230.486 86.7787 230.057 86.1185C230.684 83.1313 228.737 79.0962 228.737 79.0962C228.052 78.0399 224.776 78.9476 221.426 81.1344C218.076 83.3211 215.922 85.9452 216.607 87.0015C218.26 88.7578 220.272 90.1369 222.507 91.0449Z" fill="#192B3C"/>
<path d="M216.607 87.0015C215.922 85.9452 218.076 83.3211 221.426 81.1344C224.776 78.9476 228.027 78.0399 228.737 79.0962C229.446 80.1524 227.276 82.7765 223.926 84.9633C220.576 87.15 217.3 88.066 216.607 87.0015Z" fill="white"/>
<path d="M201.028 48.7869C200.599 48.1268 198.553 48.6962 196.474 50.0577C194.394 51.4193 193.049 53.0532 193.478 53.7133C192.851 56.7005 194.799 60.7357 194.799 60.7357C195.492 61.8002 198.768 60.8842 202.109 58.6975C205.451 56.5107 207.621 53.8866 206.928 52.8304C205.275 51.0741 203.263 49.6949 201.028 48.7869Z" fill="#192B3C"/>
<path d="M206.928 52.8632C207.621 53.9194 205.46 56.5435 202.109 58.7303C198.759 60.917 195.508 61.833 194.799 60.7685C194.089 59.704 196.267 57.0882 199.618 54.9014C202.968 52.7147 206.235 51.7987 206.928 52.8632Z" fill="white"/>
<path d="M158.723 149.716C137.014 155.864 115.717 156.111 105.254 142.157C94.1478 127.304 102.251 107.928 116.187 90.4177" stroke="#192B3C" stroke-width="10.93" stroke-miterlimit="10" stroke-linecap="round"/>
<path d="M103.818 145.334C103.818 145.334 70.1276 167.375 67.8007 179.596C65.6965 190.645 86.1023 183.458 86.1023 183.458" stroke="#192B3C" stroke-width="5.65" stroke-miterlimit="10" stroke-linecap="round"/>
</svg>
