<svg width="65" height="65" viewBox="0 0 65 65" fill="none" xmlns="http://www.w3.org/2000/svg">
<path d="M11.85 3.7434C9.5667 4.24195 7.84095 5.0709 6.4574 6.4574C3 9.91185 3 15.4756 3 26.6V29.55C3 37.8926 3 42.0669 5.59305 44.657C8.18315 47.25 12.3574 47.25 20.7 47.25H44.3C52.6426 47.25 56.8169 47.25 59.407 44.657C62 42.0669 62 37.8926 62 29.55V26.6C62 15.4756 62 9.91185 58.5426 6.4574C55.0852 3.00295 49.5245 3 38.4 3H23.65M44.3 62H20.7M32.5 47.25V62M62 35.45H44.3M3 35.45H32.5" stroke="#66C2C9" stroke-width="5" stroke-linecap="round"/>
</svg>
