<svg width="59" height="65" viewBox="0 0 59 65" fill="none" xmlns="http://www.w3.org/2000/svg">
<path d="M56.506 56.7611C56.5255 57.9493 56.0402 59.0961 55.1569 59.9492C54.2736 60.8023 53.0646 61.2918 51.7958 61.3101L8.74136 61.931C7.47261 61.9492 6.24806 61.4948 5.33711 60.6675C4.42615 59.8403 3.90341 58.708 3.88387 57.5198L3.07366 8.23888C3.05412 7.05068 3.5394 5.90389 4.42272 5.05077C5.30605 4.19766 6.51508 3.7081 7.78383 3.68981L38.8787 3.24144L55.8799 18.6803L56.506 56.7611Z" stroke="#66C2C9" stroke-width="5" stroke-linecap="round" stroke-linejoin="round"/>
<path d="M26.2915 22.5625C25.7459 22.5704 25.226 22.7809 24.8462 23.1477C24.4664 23.5146 24.2577 24.0077 24.2661 24.5186L24.3551 29.9305L18.581 30.0138C18.0363 30.0217 17.5171 30.2315 17.1374 30.5974C16.7577 30.9633 16.5484 31.4553 16.5556 31.9654L16.6583 38.2151C16.6758 39.2814 17.6133 40.1283 18.747 40.1119L24.5211 40.0287L24.61 45.4361C24.6275 46.5024 25.565 47.3493 26.6987 47.3329L33.3722 47.2367C33.9177 47.2288 34.4376 47.0183 34.8175 46.6515C35.1973 46.2846 35.406 45.7915 35.3976 45.2806L35.3086 39.8731L41.0827 39.7899C41.6283 39.782 42.1482 39.5715 42.528 39.2046C42.9078 38.8378 43.1165 38.3447 43.1081 37.8338L43.0054 31.584C42.997 31.0731 42.7722 30.5862 42.3805 30.2305C41.9888 29.8748 41.4622 29.6794 40.9166 29.6873L35.1426 29.7705L35.0537 24.3675C35.0453 23.8566 34.8205 23.3697 34.4288 23.014C34.0371 22.6583 33.5106 22.4629 32.965 22.4708L26.2915 22.5625Z" stroke="#66C2C9" stroke-width="5" stroke-linecap="round" stroke-linejoin="round"/>
</svg>
