<svg width="64" height="59" viewBox="0 0 64 59" fill="none" xmlns="http://www.w3.org/2000/svg">
<mask id="path-1-inside-1_313_408" fill="white">
<path d="M57.6 41.3V5.9H19.2V41.3M64 41.3C64 44.545 61.12 47.2 57.6 47.2H19.2C15.68 47.2 12.8 44.545 12.8 41.3V5.9C12.8 2.655 15.68 0 19.2 0H57.6C61.12 0 64 2.655 64 5.9M44.8 53.1V59H6.4C2.88 59 0 56.345 0 53.1V14.75H6.4V53.1M44.8 26.55H51.2V35.4H44.8M35.2 11.8H41.6V35.4H35.2M25.6 17.7H32V35.4H25.6V17.7Z"/>
</mask>
<path d="M57.6 41.3V5.9H19.2V41.3M64 41.3C64 44.545 61.12 47.2 57.6 47.2H19.2C15.68 47.2 12.8 44.545 12.8 41.3V5.9C12.8 2.655 15.68 0 19.2 0H57.6C61.12 0 64 2.655 64 5.9M44.8 53.1V59H6.4C2.88 59 0 56.345 0 53.1V14.75H6.4V53.1M44.8 26.55H51.2V35.4H44.8M35.2 11.8H41.6V35.4H35.2M25.6 17.7H32V35.4H25.6V17.7Z" fill="#69C3CA"/>
<path d="M57.6 5.9H58.6V4.9H57.6V5.9ZM19.2 5.9V4.9H18.2V5.9H19.2ZM44.8 59V60H45.8V59H44.8ZM0 14.75V13.75H-1V14.75H0ZM6.4 14.75H7.4V13.75H6.4V14.75ZM51.2 26.55H52.2V25.55H51.2V26.55ZM51.2 35.4V36.4H52.2V35.4H51.2ZM41.6 11.8H42.6V10.8H41.6V11.8ZM41.6 35.4V36.4H42.6V35.4H41.6ZM25.6 17.7V16.7H24.6V17.7H25.6ZM32 17.7H33V16.7H32V17.7ZM32 35.4V36.4H33V35.4H32ZM25.6 35.4H24.6V36.4H25.6V35.4ZM58.6 41.3V5.9H56.6V41.3H58.6ZM57.6 4.9H19.2V6.9H57.6V4.9ZM18.2 5.9V41.3H20.2V5.9H18.2ZM63 41.3C63 43.9177 60.6459 46.2 57.6 46.2V48.2C61.5941 48.2 65 45.1723 65 41.3H63ZM57.6 46.2H19.2V48.2H57.6V46.2ZM19.2 46.2C16.1541 46.2 13.8 43.9177 13.8 41.3H11.8C11.8 45.1723 15.2059 48.2 19.2 48.2V46.2ZM13.8 41.3V5.9H11.8V41.3H13.8ZM13.8 5.9C13.8 3.28232 16.1541 1 19.2 1V-1C15.2059 -1 11.8 2.02768 11.8 5.9H13.8ZM19.2 1H57.6V-1H19.2V1ZM57.6 1C60.6459 1 63 3.28232 63 5.9H65C65 2.02768 61.5941 -1 57.6 -1V1ZM43.8 53.1V59H45.8V53.1H43.8ZM44.8 58H6.4V60H44.8V58ZM6.4 58C3.35414 58 1 55.7177 1 53.1H-1C-1 56.9723 2.40586 60 6.4 60V58ZM1 53.1V14.75H-1V53.1H1ZM0 15.75H6.4V13.75H0V15.75ZM5.4 14.75V53.1H7.4V14.75H5.4ZM44.8 27.55H51.2V25.55H44.8V27.55ZM50.2 26.55V35.4H52.2V26.55H50.2ZM51.2 34.4H44.8V36.4H51.2V34.4ZM35.2 12.8H41.6V10.8H35.2V12.8ZM40.6 11.8V35.4H42.6V11.8H40.6ZM41.6 34.4H35.2V36.4H41.6V34.4ZM25.6 18.7H32V16.7H25.6V18.7ZM31 17.7V35.4H33V17.7H31ZM32 34.4H25.6V36.4H32V34.4ZM26.6 35.4V17.7H24.6V35.4H26.6Z" fill="#66C2C9" mask="url(#path-1-inside-1_313_408)"/>
</svg>
